<svg width="481" height="338" viewBox="0 0 481 338" fill="none" xmlns="http://www.w3.org/2000/svg">
<g clip-path="url(#clip0_26_1102)">
<path d="M117.699 308.513L112.511 247.705L131.001 248.419L126.332 310.441L126.323 310.563L126.372 310.677L133.304 326.728L133.342 326.816L133.409 326.883L143.337 336.835L133.832 336.852C133.832 336.852 133.831 336.852 133.831 336.852C131.43 336.852 129.106 335.992 127.295 334.423L127.294 334.422L119.959 328.104L119.133 327.392V328.483V336.823H117.184L114.88 322.819L114.88 322.818C114.695 321.698 114.742 320.541 115.019 319.441L115.019 319.439L117.687 308.675L117.706 308.595L117.699 308.513Z" fill="white" stroke="black"/>
<path d="M116.751 337.333H119.643L119.633 328.493L126.968 334.811C128.88 336.46 131.312 337.362 133.832 337.362L144.54 337.343L133.764 326.54L130.292 318.505L123.595 323.018L115.584 315.031L114.515 319.329C114.221 320.496 114.172 321.723 114.368 322.91L116.741 337.333H116.751Z" fill="#1B2536"/>
<path d="M66.5722 336.823L68.2811 328.584L68.5453 327.311L67.496 328.079L58.857 334.408L58.8555 334.409C56.6874 336.01 54.1619 336.872 51.7588 336.872H42.4339L54.383 326.934L54.4429 326.884L54.4848 326.818L64.732 310.747L64.7917 310.653L64.8062 310.543L72.9478 248.462L91.5826 247.721L73.8717 308.425L73.8487 308.504L73.8521 308.586L74.3032 319.339C74.3492 320.435 74.1561 321.595 73.7359 322.726L73.7358 322.726L68.5028 336.823H66.5722Z" fill="white" stroke="black"/>
<path d="M68.8388 337.314H65.9461L67.7798 328.473L59.1408 334.802C56.8952 336.45 54.2673 337.363 51.7471 337.363H41.0391L54.0515 326.54L59.18 318.495L64.9459 322.998L74.6047 315.002L74.7812 319.299C74.8303 320.467 74.6243 321.693 74.1831 322.881L68.829 337.304L68.8388 337.314Z" fill="#1B2536"/>
<path d="M122.065 86.9495C122.329 92.395 126.056 94.6222 130.096 98.3604C134.126 102.099 134.057 110.399 129.792 114.088C124.428 118.729 95.5689 115.894 91.1955 115.472C84.9295 114.873 80.1442 110.429 82.4682 102.579C84.2137 96.6729 94.8629 90.7368 95.6179 84.3789L122.074 86.9495H122.065Z" fill="#1C1C1C"/>
<path d="M147.716 137.637L139.607 119.201C137.342 114.05 132.919 110.174 127.526 108.585L118.387 105.906H98.1278L88.9887 108.585C83.5955 110.164 79.173 114.05 76.9176 119.201L68.8081 137.637H59.4141L60.9634 149.077C61.7969 155.229 67.0431 159.811 73.2502 159.811C78.1041 159.811 82.507 156.976 84.527 152.57L88.3219 144.27L90.8518 152.462L80.8988 175.843H135.655L125.702 152.462L128.232 144.27L132.027 152.57C134.047 156.985 138.45 159.811 143.304 159.811C149.501 159.811 154.747 155.229 155.591 149.077L157.14 137.637H147.746H147.716Z" fill="#262626"/>
<path d="M116.412 141.884C115.504 142.575 115.626 142.943 116.64 143.651C117.478 144.246 118.011 145.409 118.404 146.433C118.649 147.072 117.557 147.535 116.902 146.975C116.203 146.372 115.67 145.567 115.05 144.867C114.421 144.159 113.73 143.502 113.163 142.75C112.909 142.409 112.892 141.893 112.77 141.464C113.25 141.351 113.748 141.088 114.193 141.167C114.954 141.298 115.67 141.639 116.412 141.893V141.884Z" fill="white"/>
<path d="M115.07 122.028C115.07 121.285 114.86 120.463 115.113 119.815C115.716 118.232 116.494 116.701 117.297 115.205C117.498 114.829 118.092 114.663 118.503 114.4C118.73 114.873 119.28 115.503 119.141 115.8C118.092 117.952 116.904 120.043 115.76 122.142C115.533 122.107 115.297 122.063 115.07 122.028Z" fill="white"/>
<path d="M120.622 127.092C121.207 125.045 121.723 123.12 122.334 121.231C122.422 120.968 123.051 120.61 123.208 120.697C123.531 120.872 123.95 121.379 123.881 121.651C123.426 123.627 122.902 125.596 122.299 127.538C122.212 127.818 121.548 128.15 121.26 128.063C120.971 127.975 120.814 127.415 120.613 127.092H120.622Z" fill="white"/>
<path d="M129.955 120.208C129.701 119.5 129.352 119.045 129.457 118.756C130.094 116.98 130.776 115.213 131.597 113.525C131.789 113.131 132.619 113.053 133.161 112.834C133.204 113.333 133.44 113.91 133.265 114.321C132.636 115.843 131.903 117.33 131.151 118.8C130.942 119.211 130.54 119.526 129.946 120.208H129.955Z" fill="white"/>
<path d="M138.256 135.619C137.278 133.729 136.282 131.884 135.391 129.994C135.207 129.609 135.435 129.023 135.478 128.533C135.959 128.761 136.623 128.866 136.876 129.251C137.767 130.615 138.606 132.032 139.278 133.519C139.619 134.263 139.951 135.356 138.265 135.619H138.256Z" fill="white"/>
<path d="M139.104 141.94C137.147 139.893 135.522 138.24 133.976 136.525C133.723 136.245 133.793 135.685 133.723 135.248C134.186 135.309 134.788 135.204 135.077 135.458C136.544 136.744 138.012 138.047 139.27 139.526C139.602 139.919 139.191 140.952 139.104 141.931V141.94Z" fill="white"/>
<path d="M126.92 114.778C126.78 114.935 126.596 115.32 126.334 115.39C126.064 115.469 125.539 115.338 125.426 115.136C124.395 113.317 123.39 111.471 122.473 109.59C122.351 109.337 122.657 108.742 122.927 108.471C123.05 108.348 123.766 108.549 123.897 108.777C124.937 110.596 125.898 112.46 126.876 114.323C126.92 114.402 126.902 114.515 126.928 114.778H126.92Z" fill="white"/>
<path d="M116.854 136.749C116.644 137.037 116.382 137.413 116.12 137.79C115.771 137.51 115.22 137.3 115.098 136.95C114.487 135.183 113.936 133.381 113.482 131.561C113.403 131.229 113.84 130.713 114.146 130.389C114.216 130.319 114.958 130.625 115.037 130.87C115.675 132.751 116.225 134.658 116.854 136.749Z" fill="white"/>
<path d="M128.92 129.088C129.164 129.578 129.627 130.085 129.601 130.557C129.487 132.438 129.26 134.319 128.981 136.191C128.937 136.515 128.448 136.777 128.168 137.066C127.95 136.786 127.522 136.488 127.548 136.217C127.714 133.899 127.967 131.59 128.194 129.272C128.439 129.21 128.684 129.149 128.928 129.088H128.92Z" fill="white"/>
<path d="M141.101 127.757C141.101 128.431 141.154 128.693 141.092 128.921C140.979 129.314 140.778 129.691 140.621 130.067C140.289 129.778 139.747 129.533 139.66 129.183C139.197 127.407 138.795 125.614 138.498 123.803C138.437 123.41 138.891 122.937 139.118 122.5C139.45 122.806 139.965 123.06 140.07 123.436C140.516 124.984 140.839 126.576 141.11 127.757H141.101Z" fill="white"/>
<path d="M122.962 141.509C121.765 141.124 120.332 140.652 118.891 140.188L118.908 140.074C119.572 140.127 120.227 140.179 120.944 140.232C120.987 139.838 120.926 139.497 121.066 139.261C121.354 138.762 121.747 138.325 122.097 137.861C122.385 138.43 122.787 138.964 122.935 139.558C123.084 140.127 122.97 140.766 122.97 141.5L122.962 141.509Z" fill="white"/>
<path d="M101.981 171.828C101.541 172.379 101.397 172.626 101.187 172.816C100.182 173.74 99.1903 174.67 98.1331 175.537C97.9295 175.702 97.4764 175.588 97.1415 175.607C97.1415 175.284 96.9905 174.809 97.1547 174.664C98.2775 173.651 99.453 172.683 100.661 171.765C100.865 171.613 101.338 171.784 101.981 171.828Z" fill="white"/>
<path d="M135.118 156.986C133.765 155.485 132.642 154.273 131.574 153.016C131.398 152.811 131.447 152.401 131.398 152.08C131.718 152.125 132.135 152.048 132.334 152.234C133.349 153.177 134.363 154.132 135.233 155.216C135.462 155.505 135.178 156.261 135.118 156.979V156.986Z" fill="white"/>
<path d="M86.2288 143.249C85.7506 143.012 85.4014 142.943 85.3483 142.79C85.2724 142.574 85.318 142.156 85.4774 142.059C87.041 141.126 88.6198 140.215 90.2366 139.359C90.4415 139.247 90.8818 139.428 91.155 139.574C91.2309 139.616 91.2006 140.096 91.0715 140.18C89.4548 141.238 87.8076 142.261 86.2288 143.249Z" fill="white"/>
<path d="M89.2275 147.05C88.6275 148.632 88.1143 150.083 87.5216 151.5C87.4132 151.756 86.9794 151.887 86.6975 152.08C86.553 151.749 86.2204 151.362 86.3072 151.092C86.7554 149.621 87.2686 148.169 87.8396 146.739C87.9336 146.49 88.3818 146.373 88.6637 146.193C88.8661 146.497 89.0685 146.801 89.2347 147.05H89.2275Z" fill="white"/>
<path d="M149.997 165.201C149.96 165.263 149.775 165.817 149.604 165.817C149.227 165.801 148.701 165.617 148.523 165.309C147.672 163.901 146.894 162.438 146.154 160.961C146.028 160.699 146.206 160.276 146.243 159.93C146.576 159.991 147.079 159.93 147.227 160.13C148.197 161.507 149.093 162.931 149.997 164.362C150.071 164.485 150.004 164.709 150.004 165.201H149.997Z" fill="white"/>
<path d="M116.692 169.039C116.134 169.519 115.929 169.784 115.65 169.923C114.418 170.536 113.178 171.155 111.898 171.679C111.633 171.786 111.176 171.508 110.809 171.414C110.938 171.129 110.979 170.687 111.204 170.58C112.552 169.929 113.927 169.335 115.323 168.786C115.589 168.685 115.998 168.9 116.692 169.045V169.039Z" fill="white"/>
<path d="M124.53 136.916C124.438 137.027 124.317 137.297 124.145 137.346C123.968 137.402 123.624 137.31 123.549 137.168C122.873 135.889 122.214 134.592 121.612 133.27C121.531 133.092 121.732 132.674 121.91 132.483C121.99 132.397 122.46 132.538 122.546 132.698C123.228 133.977 123.859 135.287 124.501 136.596C124.53 136.652 124.518 136.732 124.535 136.916H124.53Z" fill="white"/>
<path d="M114.73 125.989C115.959 125.102 116.518 125.889 116.869 126.461C117.563 127.606 118.114 128.83 118.599 130.053C118.757 130.468 118.523 130.997 118.465 131.477C118.022 131.191 117.387 130.99 117.17 130.611C116.284 129.094 115.532 127.527 114.739 125.989H114.73Z" fill="white"/>
<path d="M137.282 121.18C136.927 121.777 136.625 122.353 136.257 122.882C135.708 123.666 135.152 124.457 134.516 125.167C134.295 125.415 133.832 125.455 133.477 125.589C133.451 125.214 133.263 124.738 133.424 124.484C134.174 123.304 134.998 122.172 135.855 121.073C136.049 120.832 136.491 120.738 136.833 120.684C136.947 120.664 137.114 120.993 137.275 121.187L137.282 121.18Z" fill="white"/>
<path d="M131.386 126.081C131.258 126.249 131.136 126.552 130.995 126.566C130.738 126.587 130.366 126.531 130.218 126.334C129.294 125.146 128.402 123.924 127.554 122.673C127.407 122.455 127.516 122.033 127.509 121.703C127.805 121.71 128.248 121.584 128.376 121.752C129.351 122.996 130.276 124.289 131.206 125.575C131.29 125.694 131.322 125.863 131.399 126.074L131.386 126.081Z" fill="white"/>
<path d="M93.1439 113.325C93.0155 113.494 92.8936 113.796 92.7524 113.81C92.4957 113.831 92.1234 113.775 91.9758 113.578C91.0515 112.39 90.1594 111.168 89.3121 109.917C89.1645 109.699 89.2736 109.277 89.2672 108.947C89.5625 108.954 90.0053 108.828 90.1337 108.996C91.1093 110.24 92.0335 111.533 92.9642 112.819C93.0476 112.938 93.0797 113.107 93.1567 113.318L93.1439 113.325Z" fill="white"/>
<path d="M85.3002 119.214C85.1718 119.382 85.0498 119.684 84.9086 119.699C84.6519 119.72 84.2796 119.663 84.132 119.467C83.2078 118.279 82.3156 117.056 81.4684 115.806C81.3208 115.588 81.4299 115.166 81.4235 114.836C81.7187 114.843 82.1616 114.716 82.2899 114.885C83.2655 116.129 84.1898 117.422 85.1204 118.708C85.2039 118.827 85.236 118.996 85.313 119.207L85.3002 119.214Z" fill="white"/>
<path d="M89.222 127.061C89.0937 127.23 88.9717 127.532 88.8305 127.546C88.5738 127.567 88.2015 127.511 88.0539 127.314C87.1296 126.127 86.2375 124.904 85.3903 123.653C85.2426 123.435 85.3518 123.014 85.3453 122.684C85.6406 122.691 86.0834 122.564 86.2118 122.733C87.1874 123.976 88.1117 125.269 89.0423 126.555C89.1258 126.675 89.1578 126.843 89.2349 127.054L89.222 127.061Z" fill="white"/>
<path d="M77.4525 134.911C77.3241 135.08 77.2022 135.382 77.061 135.396C76.8042 135.417 76.432 135.361 76.2844 135.164C75.3601 133.976 74.468 132.754 73.6207 131.503C73.4731 131.285 73.5822 130.863 73.5758 130.533C73.871 130.54 74.3139 130.414 74.4423 130.582C75.4179 131.826 76.3421 133.119 77.2728 134.405C77.3562 134.524 77.3883 134.693 77.4653 134.904L77.4525 134.911Z" fill="white"/>
<path d="M80.3939 129.024C80.2655 129.193 80.1436 129.495 80.0024 129.509C79.7457 129.53 79.3734 129.474 79.2258 129.277C78.3015 128.09 77.4094 126.867 76.5621 125.616C76.4145 125.398 76.5236 124.977 76.5172 124.646C76.8125 124.653 77.2553 124.527 77.3837 124.696C78.3593 125.939 79.2835 127.232 80.2142 128.518C80.2976 128.638 80.3297 128.806 80.4067 129.017L80.3939 129.024Z" fill="white"/>
<path d="M79.9346 124.876C79.7336 124.943 79.4629 125.124 79.3382 125.056C79.1142 124.929 78.8381 124.673 78.8267 124.427C78.7308 122.925 78.6811 121.412 78.6844 119.901C78.6849 119.638 79.0122 119.351 79.1927 119.074C79.4328 119.246 79.87 119.391 79.8813 119.603C79.988 121.18 80.0247 122.769 80.0706 124.356C80.0724 124.502 80.0041 124.66 79.9492 124.877L79.9346 124.876Z" fill="white"/>
<path d="M84.3197 134.911C84.1913 135.08 84.0694 135.382 83.9282 135.396C83.6714 135.417 83.2992 135.361 83.1515 135.164C82.2273 133.976 81.3351 132.754 80.4879 131.503C80.3403 131.285 80.4494 130.863 80.443 130.533C80.7382 130.54 81.1811 130.414 81.3095 130.582C82.2851 131.826 83.2093 133.119 84.14 134.405C84.2234 134.524 84.2555 134.693 84.3325 134.904L84.3197 134.911Z" fill="white"/>
<path d="M96.8853 129.309C96.6962 129.404 96.4546 129.623 96.3214 129.574C96.0813 129.481 95.771 129.267 95.7241 129.026C95.4112 127.554 95.1425 126.064 94.9264 124.568C94.8887 124.308 95.171 123.976 95.3094 123.676C95.5719 123.812 96.0255 123.892 96.0674 124.099C96.4019 125.645 96.6688 127.212 96.9446 128.775C96.9675 128.919 96.9227 129.085 96.8999 129.308L96.8853 129.309Z" fill="white"/>
<path d="M88.4697 135.409C88.2603 135.442 87.9632 135.575 87.8516 135.487C87.6519 135.325 87.4223 135.026 87.452 134.782C87.6073 133.285 87.8102 131.785 88.0649 130.295C88.1092 130.036 88.4798 129.807 88.7037 129.565C88.9118 129.774 89.3188 129.99 89.2947 130.2C89.1374 131.774 88.9091 133.347 88.6903 134.919C88.6678 135.063 88.5742 135.207 88.4838 135.413L88.4697 135.409Z" fill="white"/>
<path d="M87.471 116.764C87.2614 116.795 86.9633 116.927 86.8524 116.838C86.6539 116.674 86.4266 116.373 86.4582 116.129C86.6251 114.634 86.8395 113.135 87.1057 111.648C87.1521 111.388 87.5244 111.163 87.7502 110.922C87.9567 111.133 88.362 111.352 88.3362 111.562C88.1668 113.134 87.9264 114.706 87.6954 116.277C87.6717 116.42 87.577 116.564 87.4851 116.768L87.471 116.764Z" fill="white"/>
<path d="M92.3733 125.594C92.1638 125.625 91.8656 125.757 91.7547 125.668C91.5562 125.504 91.3289 125.203 91.3605 124.959C91.5274 123.464 91.7419 121.965 92.0081 120.478C92.0544 120.219 92.4267 119.993 92.6526 119.752C92.859 119.963 93.2644 120.182 93.2386 120.393C93.0692 121.965 92.8287 123.536 92.5977 125.107C92.5741 125.25 92.4794 125.394 92.3874 125.598L92.3733 125.594Z" fill="white"/>
<path d="M81.8711 120.035L88.3038 144.27" stroke="#1B2536" stroke-width="0.68" stroke-miterlimit="10"/>
<path d="M71.5625 138.402L79.672 150.137" stroke="#1B2536" stroke-width="0.68" stroke-miterlimit="10"/>
<path d="M134.636 120.035L128.203 144.27" stroke="#1B2536" stroke-width="0.68" stroke-miterlimit="10"/>
<path d="M144.941 138.402L136.832 150.137" stroke="#1B2536" stroke-width="0.68" stroke-miterlimit="10"/>
<path d="M98.8242 113.746H117.691L108.258 148.852L98.8242 113.746Z" fill="white"/>
<path d="M98.1276 105.916L110.052 151.864L99.4612 139.069C97.2941 136.45 96.5978 132.918 97.6078 129.67L98.8434 125.716L95.3035 120.575C92.6559 116.738 92.9991 111.587 96.1271 108.124L98.1374 105.906L98.1276 105.916Z" fill="#20140D"/>
<path d="M118.385 105.916L106.461 151.864L117.051 139.069C119.218 136.45 119.915 132.918 118.905 129.67L117.669 125.716L121.209 120.575C123.857 116.738 123.513 111.587 120.385 108.124L118.375 105.906L118.385 105.916Z" fill="#20140D"/>
<path d="M113.807 102.364L113.277 94.7012H103.236L102.707 102.364C102.628 103.561 101.834 104.591 100.696 104.994L98.0586 105.916L100.794 116.64H115.709L118.445 105.916L115.807 104.994C114.67 104.601 113.885 103.571 113.797 102.364H113.807Z" fill="white"/>
<path d="M113.72 101.118L113.279 94.7012H103.237L102.973 98.5473C104.679 100.392 107.111 101.658 110.357 101.658C111.602 101.658 112.72 101.461 113.73 101.128L113.72 101.118Z" fill="#28364F"/>
<path d="M118.74 84.7128C118.721 79.2183 115.808 74.0967 110.964 71.0256L108.258 69.3086L105.551 71.0256C100.707 74.0967 97.795 79.2183 97.7754 84.7128C97.7754 85.9491 97.7558 87.1755 97.7362 88.2744C97.6479 93.1704 100.815 99.8423 108.248 99.8423C115.681 99.8423 118.848 93.1704 118.76 88.2744C118.74 87.1755 118.731 85.9491 118.721 84.7128H118.74Z" fill="white"/>
<path d="M98.2569 84.9778C98.2569 84.9778 104.121 80.2781 104.876 74.6168C104.876 74.6168 111.26 84.4872 119.448 86.9401H122.056C122.056 86.9401 122.703 67.6211 107.769 67.6211C98.5315 67.6211 95.0014 79.189 95.6094 84.3695L98.2569 84.968V84.9778Z" fill="#1C1C1C"/>
<path d="M99.1081 85.4886C100.589 87.4215 100.54 89.9529 98.9806 91.1499C97.4313 92.347 94.97 91.7485 93.4795 89.8254C91.9988 87.8925 92.0478 85.3611 93.607 84.1641C95.1661 82.9671 97.6176 83.5656 99.1081 85.4886Z" fill="white"/>
<path d="M94.0664 86.224C94.0664 86.224 96.8807 84.0949 98.7634 88.7162" stroke="#262626" stroke-width="0.5" stroke-miterlimit="10"/>
<path d="M95.9102 88.1578L96.2926 85.7344" stroke="#262626" stroke-width="0.5" stroke-miterlimit="10"/>
<path d="M117.397 85.4886C115.917 87.4215 115.966 89.9529 117.525 91.1499C119.074 92.347 121.536 91.7485 123.026 89.8254C124.507 87.8925 124.458 85.3611 122.899 84.1641C121.339 82.9671 118.888 83.5656 117.397 85.4886Z" fill="white"/>
<path d="M122.439 86.224C122.439 86.224 119.625 84.0949 117.742 88.7162" stroke="#262626" stroke-width="0.5" stroke-miterlimit="10"/>
<path d="M120.593 88.1578L120.211 85.7344" stroke="#262626" stroke-width="0.5" stroke-miterlimit="10"/>
<path d="M103.836 85.2031C103.051 85.2031 102.414 85.8409 102.414 86.6258C102.414 86.7632 102.443 86.8907 102.473 87.0183L103.473 86.822L102.875 87.6658C103.13 87.9013 103.463 88.0485 103.836 88.0485C104.62 88.0485 105.258 87.4107 105.258 86.6258C105.258 85.8409 104.62 85.2031 103.836 85.2031Z" fill="#28364F"/>
<path d="M112.672 85.2031C113.456 85.2031 114.094 85.8409 114.094 86.6258C114.094 86.7632 114.064 86.8907 114.035 87.0183L113.035 86.822L113.633 87.6658C113.378 87.9013 113.044 88.0485 112.672 88.0485C111.887 88.0485 111.25 87.4107 111.25 86.6258C111.25 85.8409 111.887 85.2031 112.672 85.2031Z" fill="#28364F"/>
<path d="M101.637 84.2621C101.637 84.2621 104.01 82.8198 105.892 84.2621" stroke="#28364F" stroke-miterlimit="10"/>
<path d="M114.865 84.2621C114.865 84.2621 112.492 82.8198 110.609 84.2621" stroke="#28364F" stroke-miterlimit="10"/>
<path d="M108.268 84.9395L109.248 89.7275H107.297" stroke="#262626" stroke-width="0.5" stroke-miterlimit="10"/>
<path d="M104.805 91.6113H111.688C111.688 91.6113 111.11 95.9481 108.247 95.9481C105.383 95.9481 104.805 91.6113 104.805 91.6113Z" fill="#262626"/>
<path d="M108.259 93.5039C107.249 93.5039 106.327 93.7492 105.66 94.1515C106.18 95.0934 106.994 95.9372 108.259 95.9372C109.524 95.9372 110.338 95.0934 110.857 94.1515C110.19 93.7492 109.269 93.5039 108.259 93.5039Z" fill="#140808"/>
<path d="M135.628 175.844L131.422 250.314C123.106 252.963 112.026 250.343 100.229 251.295C88.4228 252.247 79.9995 253.689 71.5664 252.973L80.882 175.854H135.638L135.628 175.844Z" fill="#262626"/>
<path d="M73.3594 238.126L132.44 232.386L133.636 211.184H76.6051L73.3594 238.126Z" fill="#262626"/>
<path d="M86.9563 226.405C86.7815 226.781 86.7116 227.105 86.5195 227.315C85.244 228.715 83.9773 230.14 82.6058 231.435C82.3175 231.706 81.5837 231.496 81.0508 231.505C81.1731 231.041 81.1731 230.464 81.4526 230.132C82.6495 228.732 83.9074 227.385 85.2003 226.064C85.4537 225.802 85.9691 225.67 86.3447 225.697C86.5631 225.714 86.7553 226.16 86.9563 226.405Z" fill="white"/>
<path d="M106.164 234.206C106.164 233.463 105.954 232.64 106.207 231.993C106.81 230.41 107.587 228.879 108.391 227.383C108.592 227.007 109.186 226.841 109.597 226.578C109.824 227.051 110.374 227.68 110.234 227.978C109.186 230.13 107.998 232.22 106.854 234.32C106.627 234.285 106.391 234.241 106.164 234.206Z" fill="white"/>
<path d="M112.544 240.418C113.129 238.371 113.645 236.446 114.256 234.557C114.343 234.294 114.972 233.936 115.13 234.023C115.453 234.198 115.872 234.706 115.802 234.977C115.348 236.954 114.824 238.922 114.221 240.864C114.134 241.144 113.47 241.476 113.182 241.389C112.893 241.301 112.736 240.741 112.535 240.418H112.544Z" fill="white"/>
<path d="M122.529 233.665C122.275 232.957 121.926 232.502 122.031 232.213C122.669 230.437 123.35 228.67 124.171 226.982C124.363 226.588 125.193 226.51 125.735 226.291C125.779 226.79 126.014 227.367 125.84 227.778C125.211 229.3 124.477 230.787 123.726 232.257C123.516 232.668 123.114 232.983 122.52 233.665H122.529Z" fill="white"/>
<path d="M83.8112 251.165C83.619 250.998 83.1035 250.762 83.0075 250.412C82.9376 250.167 83.3744 249.573 83.6889 249.476C85.5321 248.917 87.4016 248.409 89.2886 248.007C89.6293 247.937 90.101 248.427 90.5116 248.663C90.267 249.048 90.0923 249.678 89.769 249.765C87.8996 250.281 85.9864 250.666 83.8112 251.165Z" fill="white"/>
<path d="M118.013 226.956C117.874 227.113 117.69 227.498 117.428 227.568C117.157 227.647 116.633 227.515 116.52 227.314C115.489 225.495 114.484 223.649 113.567 221.768C113.445 221.514 113.75 220.92 114.021 220.648C114.143 220.526 114.86 220.727 114.991 220.955C116.03 222.774 116.991 224.637 117.97 226.501C118.013 226.579 117.996 226.693 118.022 226.956H118.013Z" fill="white"/>
<path d="M107.948 248.926C107.738 249.215 107.476 249.591 107.214 249.967C106.865 249.687 106.314 249.477 106.192 249.128C105.58 247.361 105.03 245.559 104.576 243.739C104.497 243.407 104.934 242.89 105.24 242.567C105.31 242.497 106.052 242.803 106.131 243.048C106.768 244.929 107.319 246.836 107.948 248.926Z" fill="white"/>
<path d="M95.4311 220.62C94.8982 222.72 94.4352 224.653 93.8761 226.551C93.78 226.866 93.2646 227.059 92.9413 227.304C92.7229 226.945 92.2687 226.534 92.3298 226.228C92.7055 224.268 93.151 222.326 93.6752 220.402C93.7538 220.104 94.3653 219.754 94.6885 219.781C94.9681 219.807 95.2039 220.349 95.4223 220.612L95.4311 220.62Z" fill="white"/>
<path d="M120.013 241.266C120.258 241.755 120.721 242.263 120.695 242.735C120.581 244.616 120.354 246.497 120.074 248.369C120.031 248.692 119.542 248.955 119.262 249.244C119.044 248.964 118.616 248.666 118.642 248.395C118.808 246.077 119.061 243.767 119.288 241.449C119.533 241.388 119.777 241.327 120.022 241.266H120.013Z" fill="white"/>
<path d="M89.4914 240.257C89.3342 239.942 89.1769 239.636 89.0284 239.321C88.2247 237.607 87.3861 235.918 86.661 234.169C86.5212 233.836 86.827 233.311 86.9231 232.883C87.2987 233.058 87.8665 233.136 88.0151 233.434C88.9236 235.192 89.771 236.985 90.531 238.814C90.662 239.12 90.2689 239.645 90.1204 240.073C89.9108 240.135 89.7011 240.196 89.5002 240.257H89.4914Z" fill="white"/>
<path d="M83.7138 243.782C83.4867 243.852 83.1023 244.097 82.7267 244.08C82.3423 244.062 81.7482 243.905 81.6172 243.625C80.831 241.963 80.0884 240.266 79.4682 238.542C79.3109 238.114 79.6342 237.501 79.739 236.977C80.1059 237.256 80.6213 237.449 80.8048 237.816C81.722 239.575 82.5607 241.385 83.7138 243.782Z" fill="white"/>
<path d="M100.979 239.392C100.743 239.646 100.525 240.084 100.272 240.101C99.9747 240.127 99.4855 239.847 99.3806 239.585C99.0137 238.666 98.7691 237.704 98.4896 236.751C98.21 235.788 97.8693 234.844 97.6946 233.864C97.6335 233.532 97.9829 233.129 98.1401 232.762C98.4896 232.954 99.0661 233.068 99.1622 233.348C99.8087 235.29 100.35 237.258 100.979 239.392Z" fill="white"/>
<path d="M93.0703 247.835C93.7779 246.593 94.3807 245.543 94.9922 244.493C95.2194 244.099 95.3853 243.653 95.6998 243.347C95.9706 243.085 96.4074 242.988 96.7656 242.822C96.9054 243.207 97.2636 243.68 97.15 243.968C96.5996 245.342 96.0493 246.759 95.2106 247.957C94.9835 248.281 93.7342 247.887 93.0703 247.835Z" fill="white"/>
<path d="M98.1797 226.397C98.3719 224.717 101.089 223.125 102.53 223.877C102.801 224.017 103.159 224.455 103.107 224.63C103.011 224.953 102.661 225.338 102.347 225.426C100.975 225.802 99.5774 226.082 98.1797 226.397Z" fill="white"/>
<path d="M51.3457 136.637H174.528C178.979 136.637 182.588 140.248 182.588 144.702V220.35C182.588 224.804 178.979 228.415 174.528 228.415H51.3457C46.8943 228.415 43.2852 224.804 43.2852 220.35V144.702C43.2852 140.248 46.8943 136.637 51.3457 136.637Z" fill="white" stroke="black"/>
<path d="M68.6135 200.432H60.0039V211.195H68.6135V200.432Z" fill="#26252D"/>
<path d="M88.0705 187.117H79.4609V211.185H88.0705V187.117Z" fill="#26252D"/>
<path d="M107.516 177.305H98.9062V211.194H107.516V177.305Z" fill="#26252D"/>
<path d="M126.957 171.85H118.348V211.184H126.957V171.85Z" fill="#26252D"/>
<path d="M146.403 158.223H137.793V211.196H146.403V158.223Z" fill="#26252D"/>
<path d="M165.86 182.172H157.25V211.195H165.86V182.172Z" fill="#26252D"/>
<path d="M68.6135 176.746H60.0039V211.185H68.6135V176.746Z" stroke="#28364F" stroke-width="0.6" stroke-miterlimit="10"/>
<path d="M88.0705 182.172H79.4609V211.195H88.0705V182.172Z" stroke="#28364F" stroke-width="0.55" stroke-miterlimit="10"/>
<path d="M107.516 163.049H98.9062V211.185H107.516V163.049Z" stroke="#28364F" stroke-width="0.71" stroke-miterlimit="10"/>
<path d="M126.957 158.908H118.348V211.184H126.957V158.908Z" stroke="#28364F" stroke-width="0.74" stroke-miterlimit="10"/>
<path d="M146.403 150.039H137.793V211.195H146.403V150.039Z" stroke="#28364F" stroke-width="0.8" stroke-miterlimit="10"/>
<path d="M165.86 168.072H157.25V211.184H165.86V168.072Z" stroke="#28364F" stroke-width="0.67" stroke-miterlimit="10"/>
<path d="M51.3359 211.186H174.538" stroke="#28364F" stroke-width="0.55" stroke-miterlimit="10"/>
<path d="M0 337.312H481" stroke="#28364F" stroke-width="1.4" stroke-miterlimit="10"/>
<path d="M396.705 313.414H408.437L408.222 323.696L408.222 323.698C408.201 324.906 408.397 326.107 408.822 327.247L411.342 334.017L411.342 334.017C411.847 335.368 410.844 336.816 409.398 336.816H383.501C382.475 336.816 382.072 335.485 382.924 334.916C382.925 334.916 382.925 334.916 382.925 334.916L394.417 327.283L394.417 327.283C396.201 326.096 397.227 324.064 397.12 321.926L396.705 313.414Z" fill="#EFEFEF" stroke="black"/>
<path d="M395.436 325.668C395.074 326.119 394.652 326.531 394.152 326.865L382.659 334.498C381.394 335.342 381.993 337.314 383.512 337.314H409.41C411.204 337.314 412.44 335.529 411.822 333.841L409.959 328.827L403.399 329.877C401.634 330.162 399.898 329.445 398.721 328.091C397.692 326.914 396.397 326.129 395.436 325.668Z" fill="#28364F"/>
<path d="M364.398 319.428L362.042 311.23L373.456 308.544L375.597 318.609C375.597 318.61 375.597 318.61 375.597 318.61C375.846 319.792 376.322 320.919 376.994 321.932L376.994 321.933L380.995 327.947C380.995 327.947 380.995 327.947 380.995 327.947C381.794 329.152 381.15 330.785 379.749 331.108L379.747 331.108L354.538 337.034C354.537 337.034 354.537 337.035 354.537 337.035C353.533 337.266 352.847 336.066 353.545 335.322C353.545 335.322 353.545 335.322 353.545 335.322L362.988 325.256L362.988 325.256C364.451 323.695 364.986 321.482 364.398 319.429L364.398 319.428Z" fill="#EFEFEF" stroke="black"/>
<path d="M363.605 323.46C363.36 323.99 363.037 324.481 362.635 324.912L353.192 334.979C352.152 336.088 353.182 337.873 354.662 337.52L379.873 331.594C381.619 331.182 382.423 329.161 381.423 327.669L378.461 323.215L372.313 325.736C370.656 326.413 368.803 326.119 367.361 325.069C366.096 324.157 364.655 323.696 363.605 323.46Z" fill="#28364F"/>
<path d="M393.029 81.3097C393.019 81.1331 397.991 74.3729 399.197 70.7622C400.403 67.1516 397.707 65.1009 393.029 65.5817C393.029 65.5817 394.922 59.4396 389.195 59.5574C383.478 59.6751 381.733 60.9408 378.722 59.5574C375.712 58.1739 371.495 59.3808 370.838 62.8148C370.181 66.2489 374.104 72.4302 377.281 75.7661C381.86 80.5836 393.039 81.3195 393.039 81.3195L393.029 81.3097Z" fill="#1B2536"/>
<path d="M401.297 160.734H370.252L378.723 94.6914H396.207L401.297 160.734Z" stroke="black"/>
<path d="M353.631 107.388L332.333 136.637L309.848 142.425V165.08L329.96 160.283C337.049 158.595 343.492 154.847 348.463 149.509L363.153 133.752L372.37 96.6347L367.095 98.077C361.682 99.5586 356.926 102.845 353.621 107.388H353.631Z" fill="#263238"/>
<path d="M329.54 137.354L327.04 161.058L317.41 163.276L319.813 139.855L329.54 137.354Z" fill="#263238"/>
<path d="M348.473 149.501L362.094 134.891L360.437 113.492L344.473 153.2C345.895 152.071 347.228 150.835 348.473 149.491V149.501Z" fill="#263238"/>
<path d="M362.462 165.582H413.076L410.923 314.631H391.361L385.969 188.589L385.949 188.11H385.47H381.547H381.152L381.061 188.495L374.677 215.487L368.293 242.479L368.273 242.565L368.283 242.653L375.928 307.005L357.111 311.41L344.448 257.579C344.448 257.579 344.448 257.579 344.448 257.579C342.143 247.771 342.357 237.535 345.06 227.834L362.462 165.582Z" fill="white" stroke="black"/>
<path d="M408.69 175.158L407.102 315.14" stroke="#1B2536" stroke-width="0.62" stroke-miterlimit="10"/>
<path d="M376.82 186.893L363.484 241.553L372.869 308.233" fill="white"/>
<path d="M376.82 186.893L363.484 241.553L372.869 308.233" stroke="#1B2536" stroke-width="0.62" stroke-miterlimit="10"/>
<path d="M385.473 164.699V188.61" stroke="#1B2536" stroke-width="0.62" stroke-miterlimit="10"/>
<path d="M380.891 165.662V175.081C380.891 178.162 382.538 181.007 385.195 182.548L385.47 182.705" fill="white"/>
<path d="M380.891 165.662V175.081C380.891 178.162 382.538 181.007 385.195 182.548L385.47 182.705" stroke="#1B2536" stroke-width="0.62" stroke-miterlimit="10"/>
<path d="M374.094 290.424L368.211 243.329L377.036 206.535" stroke="black"/>
<path d="M353.504 197.704L359.387 177.1L361.839 171.213" stroke="black"/>
<path d="M405.965 161.059H364.996V166.847H405.965V161.059Z" fill="#34291F"/>
<path d="M388.077 161.059H378.281V166.847H388.077V161.059Z" fill="#1B2536"/>
<path d="M389.808 68.1133C389.808 68.1133 387.337 75.158 392.76 77.3951L393.662 90.1109L384.866 95.4092L380.473 92.1517V88.3546C380.473 88.3546 373.011 86.8436 375.952 75.7663L375.707 70.5269C375.707 70.5269 384.376 71.7338 389.798 68.1133H389.808Z" fill="#EFEFEF"/>
<path d="M397.77 80.6429C396.583 82.8505 394.014 83.7826 392.033 82.723C390.052 81.6535 389.415 79.0044 390.611 76.787C391.798 74.5794 394.367 73.6472 396.348 74.7069C398.329 75.7666 398.966 78.4255 397.77 80.6429Z" fill="#EFEFEF"/>
<path d="M391.718 80.3967C391.178 77.0215 395.179 74.1565 396.895 77.4139" stroke="#262626" stroke-width="0.66" stroke-miterlimit="10"/>
<path d="M394.838 79.0039L393.328 76.5117" stroke="#262626" stroke-width="0.66" stroke-miterlimit="10"/>
<path d="M380.93 88.5005C383.362 89.2265 387.255 89.0009 390 86.7344" stroke="#262626" stroke-width="0.66" stroke-miterlimit="10"/>
<path d="M407.16 127.641L413.583 156.546L415.956 142.005L407.16 127.641Z" fill="#263238"/>
<path d="M378.578 94.9277L373.773 172.744C373.4 178.729 368.448 183.389 362.457 183.389H352.562L361.231 153.827L359.348 113.57C358.985 105.848 364.026 98.9211 371.468 96.8802L378.568 94.9375L378.578 94.9277Z" fill="#263238"/>
<path d="M375.263 97.1562L372.851 100.208C370.017 103.789 369.193 108.567 370.664 112.904L372.518 118.369L369.35 124.452C367.615 127.788 367.35 131.703 368.625 135.245L373.488 148.726" stroke="white" stroke-width="0.66" stroke-miterlimit="10"/>
<path d="M359.152 109.322L360.437 136.677" stroke="#1B2536" stroke-width="0.62" stroke-miterlimit="10"/>
<path d="M369.892 162.893L359.125 167.42L360.075 169.681L370.842 165.155L369.892 162.893Z" fill="white"/>
<path d="M407.923 167.433L397.156 162.906L396.207 165.168L406.974 169.694L407.923 167.433Z" fill="white"/>
<path d="M382.608 99.3623L384.864 95.4082L387.639 99.3623L386.727 102.394L389.443 147.881L383.903 157.28L378.578 147.881L383.599 102.394L382.608 99.3623Z" fill="black"/>
<path d="M431.395 206.182H428.551C424.893 206.182 421.403 207.722 418.931 210.41L410.371 219.751H449.595L441.034 210.41C438.563 207.712 435.072 206.182 431.414 206.182H431.395Z" stroke="#262626" stroke-width="2" stroke-miterlimit="10"/>
<path d="M401.398 236.697V217.77H458.528V236.697H401.398Z" fill="white" stroke="black"/>
<path d="M401.398 258.546V237.695H458.528V258.546H401.398Z" fill="white" stroke="black"/>
<path d="M449.057 232.291H445.203V250.482H449.057V232.291Z" fill="white" stroke="black" stroke-width="0.66" stroke-miterlimit="10"/>
<path d="M414.737 232.291H410.883V250.482H414.737V232.291Z" fill="white" stroke="black" stroke-width="0.66" stroke-miterlimit="10"/>
<path d="M379.008 75.6388L379.871 75.8939C379.9 75.786 379.92 75.6781 379.92 75.5603C379.92 74.8932 379.381 74.3535 378.714 74.3535C378.047 74.3535 377.508 74.8932 377.508 75.5603C377.508 76.2275 378.047 76.7672 378.714 76.7672C379.087 76.7672 379.41 76.5906 379.636 76.3257L378.998 75.6388H379.008Z" fill="#1B2536"/>
<path d="M385.246 75.6388L386.109 75.8939C386.139 75.786 386.158 75.6781 386.158 75.5603C386.158 74.8932 385.619 74.3535 384.952 74.3535C384.285 74.3535 383.746 74.8932 383.746 75.5603C383.746 76.2275 384.285 76.7672 384.952 76.7672C385.325 76.7672 385.648 76.5906 385.874 76.3257L385.237 75.6388H385.246Z" fill="#1B2536"/>
<path d="M381.148 73.8828L381.452 75.7863L380.952 78.1803C380.795 78.9358 381.373 79.652 382.148 79.652H383.756" stroke="#262626" stroke-width="0.66" stroke-miterlimit="10"/>
<path d="M380.508 81.252C380.508 81.252 383.028 82.1841 385.695 80.3984" stroke="#262626" stroke-width="0.66" stroke-miterlimit="10"/>
<path d="M382.727 72.5966C382.727 72.5966 384.776 72.1551 386.531 72.5966" stroke="#1B2536" stroke-miterlimit="10"/>
<path d="M376.824 72.5966C376.824 72.5966 378.874 72.1551 380.629 72.5966" stroke="#1B2536" stroke-miterlimit="10"/>
<path d="M384.863 95.4086L394.659 89.4922L397.699 93.4168L388.335 100.363L384.863 95.4086Z" fill="#262626"/>
<path d="M384.861 95.4096L381.821 100.737L376.457 95.4096L379.262 91.3672L384.861 95.4096Z" fill="#262626"/>
<path d="M425.994 197.135H434.743L434.647 199.38L434.645 199.429L434.653 199.478L435.908 207.639C435.908 207.639 435.908 207.64 435.908 207.64C436.088 208.841 435.162 209.92 433.951 209.92H427.351C426.175 209.92 425.26 208.909 425.378 207.743L425.378 207.742L425.584 205.652L425.638 205.103H425.086C424.352 205.103 423.87 204.343 424.176 203.684L424.177 203.683L426.128 199.464L426.184 199.344L426.173 199.212L425.994 197.135Z" fill="white" stroke="black"/>
<path d="M425.009 115.209L438.208 147.793C440.502 153.455 441.473 159.567 441.051 165.66L438.806 198.009H430.696H422.587L421.783 163.786L407.172 127.64L411.31 101.482L414.242 103.092C419.115 105.77 422.92 110.058 425.009 115.219V115.209Z" fill="#263238"/>
<path d="M394.873 92.4355L390.901 171.478C390.578 177.963 395.735 183.389 402.227 183.389H419.368L413.425 158.487L420.113 117.465C421.113 111.333 418.142 105.24 412.7 102.247L394.873 92.4454V92.4355Z" fill="#263238"/>
<path d="M396.961 96.0566L398.991 99.6575C400.981 103.18 401.285 107.418 399.805 111.186L396.951 118.486L399.471 122.744C401.736 126.571 401.972 131.261 400.099 135.293L393.637 149.216" stroke="white" stroke-width="0.66" stroke-miterlimit="10"/>
<path d="M406.517 168.716L396.402 162.873L395.177 164.997L405.291 170.84L406.517 168.716Z" fill="white"/>
<path d="M182.12 138.844H316.024C320.523 138.844 324.078 142.108 324.078 146.022V232.035H174.066V146.022C174.066 142.108 177.621 138.844 182.12 138.844Z" fill="white" stroke="black"/>
<path d="M174.309 232.789H324.447V328.796C324.447 333.249 320.837 336.862 316.387 336.862H182.369C177.919 336.862 174.309 333.249 174.309 328.796V232.789Z" fill="white" stroke="black"/>
<path d="M210.336 173.242H186.105V220.112H222.878V185.801L210.336 173.242Z" fill="#1B2536"/>
<path d="M208.543 171.389H184.312V218.259H221.095V183.938L208.543 171.389Z" fill="white"/>
<path d="M208.543 171.389V183.938H221.095L208.543 171.389Z" fill="#636363"/>
<path d="M200.56 181.789H188.871V183.948H200.56V181.789Z" fill="#263238"/>
<path d="M216.524 187.42H188.871V188.499H216.524V187.42Z" fill="#263238"/>
<path d="M216.524 191.236H188.871V192.316H216.524V191.236Z" fill="#263238"/>
<path d="M216.524 195.043H188.871V196.122H216.524V195.043Z" fill="#263238"/>
<path d="M216.524 198.85H188.871V199.929H216.524V198.85Z" fill="#263238"/>
<path d="M216.524 202.658H188.871V203.737H216.524V202.658Z" fill="#263238"/>
<path d="M200.56 206.465H188.871V207.544H200.56V206.465Z" fill="#263238"/>
<path d="M256.123 173.242H231.883V220.112H268.665V185.801L256.123 173.242Z" fill="#1B2536"/>
<path d="M254.328 171.389H230.098V218.259H266.87V183.938L254.328 171.389Z" fill="white"/>
<path d="M254.328 171.389V183.938H266.87L254.328 171.389Z" fill="#636363"/>
<path d="M246.345 181.789H234.656V183.948H246.345V181.789Z" fill="#263238"/>
<path d="M262.309 187.42H234.656V188.499H262.309V187.42Z" fill="#263238"/>
<path d="M262.309 191.236H234.656V192.316H262.309V191.236Z" fill="#263238"/>
<path d="M262.309 195.043H234.656V196.122H262.309V195.043Z" fill="#263238"/>
<path d="M262.309 198.85H234.656V199.929H262.309V198.85Z" fill="#263238"/>
<path d="M262.309 202.658H234.656V203.737H262.309V202.658Z" fill="#263238"/>
<path d="M246.345 206.465H234.656V207.544H246.345V206.465Z" fill="#263238"/>
<path d="M301.894 173.242H277.664V220.112H314.446V185.801L301.894 173.242Z" fill="#1B2536"/>
<path d="M300.111 171.389H275.871V218.259H312.653V183.938L300.111 171.389Z" fill="white"/>
<path d="M300.109 171.389V183.938H312.651L300.109 171.389Z" fill="#636363"/>
<path d="M292.13 181.789H280.441V183.948H292.13V181.789Z" fill="#263238"/>
<path d="M308.094 187.42H280.441V188.499H308.094V187.42Z" fill="#263238"/>
<path d="M308.094 191.236H280.441V192.316H308.094V191.236Z" fill="#263238"/>
<path d="M308.094 195.043H280.441V196.122H308.094V195.043Z" fill="#263238"/>
<path d="M308.094 198.85H280.441V199.929H308.094V198.85Z" fill="#263238"/>
<path d="M308.094 202.658H280.441V203.737H308.094V202.658Z" fill="#263238"/>
<path d="M292.13 206.465H280.441V207.544H292.13V206.465Z" fill="#263238"/>
<path d="M309.535 246.908H192.325C189.617 246.908 187.422 249.105 187.422 251.814V263.951C187.422 266.66 189.617 268.857 192.325 268.857H309.535C312.243 268.857 314.438 266.66 314.438 263.951V251.814C314.438 249.105 312.243 246.908 309.535 246.908Z" fill="#252C2C"/>
<path d="M307.984 244.711H190.774C188.066 244.711 185.871 246.907 185.871 249.617V261.754C185.871 264.463 188.066 266.659 190.774 266.659H307.984C310.692 266.659 312.887 264.463 312.887 261.754V249.617C312.887 246.907 310.692 244.711 307.984 244.711Z" fill="white"/>
<path d="M206.487 262.769C210.391 261.059 212.17 256.505 210.461 252.599C208.751 248.692 204.2 246.912 200.296 248.623C196.392 250.334 194.613 254.887 196.322 258.794C198.032 262.7 202.583 264.48 206.487 262.769Z" fill="#403E3E"/>
<path d="M216.109 251.283H303.078" stroke="#28364F" stroke-width="0.75" stroke-linecap="round" stroke-linejoin="round"/>
<path d="M216.109 255.689H303.078" stroke="#28364F" stroke-width="0.75" stroke-linecap="round" stroke-linejoin="round"/>
<path d="M216.109 260.084H303.078" stroke="#28364F" stroke-width="0.75" stroke-linecap="round" stroke-linejoin="round"/>
<path d="M309.535 274.949H192.325C189.617 274.949 187.422 277.146 187.422 279.855V291.992C187.422 294.701 189.617 296.898 192.325 296.898H309.535C312.243 296.898 314.438 294.701 314.438 291.992V279.855C314.438 277.146 312.243 274.949 309.535 274.949Z" fill="#252C2C"/>
<path d="M307.984 272.752H190.774C188.066 272.752 185.871 274.948 185.871 277.658V289.795C185.871 292.504 188.066 294.701 190.774 294.701H307.984C310.692 294.701 312.887 292.504 312.887 289.795V277.658C312.887 274.948 310.692 272.752 307.984 272.752Z" fill="white"/>
<path d="M206.483 290.81C210.387 289.1 212.166 284.546 210.457 280.64C208.747 276.733 204.196 274.953 200.292 276.664C196.388 278.375 194.609 282.928 196.318 286.835C198.028 290.741 202.579 292.521 206.483 290.81Z" fill="#403E3E"/>
<path d="M216.113 279.326H303.082" stroke="#0F1011" stroke-width="0.75" stroke-linecap="round" stroke-linejoin="round"/>
<path d="M216.113 283.732H303.082" stroke="#0F1011" stroke-width="0.75" stroke-linecap="round" stroke-linejoin="round"/>
<path d="M216.113 288.127H303.082" stroke="#0F1011" stroke-width="0.75" stroke-linecap="round" stroke-linejoin="round"/>
<path d="M309.535 302.992H192.325C189.617 302.992 187.422 305.189 187.422 307.898V320.035C187.422 322.744 189.617 324.941 192.325 324.941H309.535C312.243 324.941 314.438 322.744 314.438 320.035V307.898C314.438 305.189 312.243 302.992 309.535 302.992Z" fill="#252C2C"/>
<path d="M307.984 300.795H190.774C188.066 300.795 185.871 302.991 185.871 305.701V317.838C185.871 320.547 188.066 322.743 190.774 322.743H307.984C310.692 322.743 312.887 320.547 312.887 317.838V311.769V305.701C312.887 302.991 310.692 300.795 307.984 300.795Z" fill="white"/>
<path d="M206.487 318.853C210.391 317.143 212.17 312.589 210.461 308.683C208.751 304.776 204.2 302.996 200.296 304.707C196.392 306.418 194.613 310.971 196.322 314.878C198.032 318.784 202.583 320.564 206.487 318.853Z" fill="#403E3E"/>
<path d="M216.109 307.369H303.078" stroke="#28364F" stroke-width="0.75" stroke-linecap="round" stroke-linejoin="round"/>
<path d="M216.109 311.775H303.078" stroke="#28364F" stroke-width="0.75" stroke-linecap="round" stroke-linejoin="round"/>
<path d="M216.109 316.17H303.078" stroke="#28364F" stroke-width="0.75" stroke-linecap="round" stroke-linejoin="round"/>
<path d="M465.72 42.8086H422.153C417.426 42.8086 413.592 46.6449 413.592 51.3741V66.69C413.592 67.2002 413.347 67.6908 412.935 67.995L404.257 74.3823C403.561 74.8925 403.923 75.9914 404.786 75.9914H411.974C412.866 75.9914 413.592 76.7175 413.592 77.6104V87.4906C413.592 92.2198 417.426 96.0562 422.153 96.0562H465.72C470.447 96.0562 474.281 92.2198 474.281 87.4906V51.3839C474.281 46.6547 470.447 42.8184 465.72 42.8184V42.8086Z" stroke="#26252D" stroke-width="1.14" stroke-miterlimit="10"/>
<path d="M455.246 54.2972L459.708 58.7516L465.885 52.5703" stroke="#262626" stroke-width="1.14" stroke-linecap="round" stroke-linejoin="round"/>
<path d="M449.952 58.3388H423.054C422.083 58.3388 421.289 57.5441 421.289 56.5727C421.289 55.6014 422.083 54.8066 423.054 54.8066H449.952C450.923 54.8066 451.717 55.6014 451.717 56.5727C451.717 57.5441 450.923 58.3388 449.952 58.3388Z" fill="#26252D"/>
<path d="M455.246 68.0628L459.708 72.5271L465.885 66.3359" stroke="#262626" stroke-width="1.14" stroke-linecap="round" stroke-linejoin="round"/>
<path d="M449.952 72.1142H423.054C422.083 72.1142 421.289 71.3195 421.289 70.3481C421.289 69.3768 422.083 68.582 423.054 68.582H449.952C450.923 68.582 451.717 69.3768 451.717 70.3481C451.717 71.3195 450.923 72.1142 449.952 72.1142Z" fill="#26252D"/>
<path d="M455.246 81.8382L459.708 86.2926L465.885 80.1113" stroke="#262626" stroke-width="1.14" stroke-linecap="round" stroke-linejoin="round"/>
<path d="M449.952 82.3477H423.054C422.079 82.3477 421.289 83.1384 421.289 84.1137C421.289 85.0891 422.079 85.8798 423.054 85.8798H449.952C450.927 85.8798 451.717 85.0891 451.717 84.1137C451.717 83.1384 450.927 82.3477 449.952 82.3477Z" fill="#26252D"/>
<path d="M70.1266 138.7L70.1267 138.7C70.2225 139.593 69.522 140.374 68.6235 140.374H60.6414C59.8883 140.374 59.2488 139.82 59.1461 139.079L59.1458 139.077L58.3613 133.582L58.3612 133.581C58.2856 133.058 58.6685 132.581 59.206 132.543C59.206 132.543 59.2061 132.543 59.2062 132.542L68.254 131.905C68.2544 131.905 68.2548 131.905 68.2551 131.905C68.8929 131.864 69.4499 132.328 69.5188 132.961C69.5188 132.961 69.5188 132.961 69.5188 132.961L70.1266 138.7Z" fill="white" stroke="#7A7979"/>
<path d="M60.1914 133.279L61.6623 140.873" stroke="#7A7979" stroke-miterlimit="10"/>
<path d="M63.3672 133.279L64.8381 140.873" stroke="#7A7979" stroke-miterlimit="10"/>
<path d="M66.5469 133.279L68.0178 140.873" stroke="#7A7979" stroke-miterlimit="10"/>
<path d="M146.38 138.7L146.38 138.7L146.988 132.961C146.988 132.961 146.988 132.961 146.988 132.961C147.057 132.328 147.614 131.864 148.251 131.905C148.252 131.905 148.252 131.905 148.253 131.905L157.3 132.542C157.301 132.543 157.301 132.543 157.301 132.543C157.838 132.581 158.221 133.058 158.145 133.581L158.145 133.582L157.361 139.077L157.361 139.079C157.258 139.82 156.618 140.374 155.865 140.374H147.883C146.985 140.374 146.284 139.593 146.38 138.7Z" fill="white" stroke="#7A7979"/>
<path d="M156.319 133.279L154.848 140.873" stroke="#7A7979" stroke-miterlimit="10"/>
<path d="M153.139 133.279L151.668 140.873" stroke="#7A7979" stroke-miterlimit="10"/>
<path d="M149.963 133.279L148.492 140.873" stroke="#7A7979" stroke-miterlimit="10"/>
<path d="M129.37 86.8719L129.369 86.8728C128.67 87.5321 127.516 87.0357 127.516 86.069V36.1573C127.516 31.704 131.126 28.0918 135.576 28.0918H177.055C181.505 28.0918 185.116 31.704 185.116 36.1573V69.7915C185.116 74.2448 181.505 77.857 177.055 77.857H141.352C139.823 77.857 138.357 78.4349 137.244 79.4844C137.244 79.4844 137.243 79.4845 137.243 79.4846L129.37 86.8719Z" stroke="black"/>
<g filter="url(#filter0_d_26_1102)">
<path d="M174.349 41.436H138.283C137.332 41.436 136.567 40.6706 136.567 39.7189C136.567 38.7672 137.332 38.0019 138.283 38.0019H174.349C175.3 38.0019 176.065 38.7672 176.065 39.7189C176.065 40.6706 175.3 41.436 174.349 41.436Z" stroke="black" stroke-width="0.68" stroke-miterlimit="10" shape-rendering="crispEdges"/>
</g>
<path d="M174.349 50.2758H138.283C137.332 50.2758 136.567 49.5105 136.567 48.5588C136.567 47.607 137.332 46.8417 138.283 46.8417H174.349C175.3 46.8417 176.065 47.607 176.065 48.5588C176.065 49.5105 175.3 50.2758 174.349 50.2758Z" stroke="#4F4F4F" stroke-width="0.68" stroke-miterlimit="10"/>
<path d="M174.349 59.1059H138.283C137.332 59.1059 136.567 58.3406 136.567 57.3888C136.567 56.4371 137.332 55.6718 138.283 55.6718H174.349C175.3 55.6718 176.065 56.4371 176.065 57.3888C176.065 58.3406 175.3 59.1059 174.349 59.1059Z" stroke="#4F4F4F" stroke-width="0.68" stroke-miterlimit="10"/>
<path d="M174.349 67.9477H138.283C137.332 67.9477 136.567 67.1824 136.567 66.2306C136.567 65.2789 137.332 64.5136 138.283 64.5136H174.349C175.3 64.5136 176.065 65.2789 176.065 66.2306C176.065 67.1824 175.3 67.9477 174.349 67.9477Z" stroke="white" stroke-width="0.68" stroke-miterlimit="10"/>
</g>
<defs>
<filter id="filter0_d_26_1102" x="132.227" y="37.6619" width="48.1782" height="12.1141" filterUnits="userSpaceOnUse" color-interpolation-filters="sRGB">
<feFlood flood-opacity="0" result="BackgroundImageFix"/>
<feColorMatrix in="SourceAlpha" type="matrix" values="0 0 0 0 0 0 0 0 0 0 0 0 0 0 0 0 0 0 127 0" result="hardAlpha"/>
<feOffset dy="4"/>
<feGaussianBlur stdDeviation="2"/>
<feComposite in2="hardAlpha" operator="out"/>
<feColorMatrix type="matrix" values="0 0 0 0 0 0 0 0 0 0 0 0 0 0 0 0 0 0 0.25 0"/>
<feBlend mode="normal" in2="BackgroundImageFix" result="effect1_dropShadow_26_1102"/>
<feBlend mode="normal" in="SourceGraphic" in2="effect1_dropShadow_26_1102" result="shape"/>
</filter>
<clipPath id="clip0_26_1102">
<rect width="481" height="338" fill="white"/>
</clipPath>
</defs>
</svg>
